<?xml version="1.0" standalone="no"?>
<!DOCTYPE svg PUBLIC "-//W3C//DTD SVG 20010904//EN"
 "http://www.w3.org/TR/2001/REC-SVG-20010904/DTD/svg10.dtd">
<svg version="1.0" xmlns="http://www.w3.org/2000/svg"
 width="2000.000000pt" height="2000.000000pt" viewBox="0 0 2000.000000 2000.000000"
 preserveAspectRatio="xMidYMid meet">

<g transform="translate(0.000000,2000.000000) scale(0.100000,-0.100000)"
fill="#000000" stroke="none">
<path d="M5170 15210 l0 -390 -400 0 -400 0 2 -2867 3 -2868 388 -3 387 -2 0
-355 0 -355 -390 0 -390 0 2 -177 3 -177 1185 -1 1185 0 3 -402 2 -403 405 0
405 0 0 -370 0 -370 2080 0 2080 0 0 385 0 385 440 0 440 0 0 395 0 395 1130
0 1130 0 0 175 0 175 -370 0 -370 0 0 349 0 349 123 6 c67 3 551 7 1075 9 523
2 955 7 960 11 6 7 18 426 21 738 l1 108 388 2 387 3 3 1633 2 1632 -390 0
-390 0 -2 403 -3 402 -712 3 -713 2 0 395 0 395 -385 0 -385 0 0 390 0 390
-4465 0 -4465 0 0 -390z m8904 -461 c3 -3 3 -168 -1 -367 l-6 -362 -4427 0
-4427 0 -6 158 c-4 86 -7 253 -7 370 l0 213 4434 -3 c2439 -2 4437 -6 4440 -9z
m2156 -3199 l0 -1550 -675 0 -675 0 0 1550 0 1550 675 0 675 0 0 -1550z
m-6202 948 l2 -348 435 0 435 0 0 -375 0 -375 -1125 0 -1125 0 0 -1135 0
-1135 1125 0 1125 0 0 -375 0 -375 -435 0 -435 0 0 -325 0 -325 -210 0 -210 0
0 325 0 325 -480 0 -480 0 0 375 0 375 -372 2 -373 3 0 1130 0 1130 372 3 373
2 2 373 3 372 473 3 472 2 0 343 c0 189 3 347 7 351 4 3 99 5 212 4 l206 -3 3
-347z"/>
<path d="M15530 7690 l0 -340 354 0 354 0 5 -27 c3 -15 4 -212 4 -438 l-2
-410 -717 -3 -718 -2 0 -385 0 -385 -5165 0 -5165 0 -2 368 -3 367 -717 3
-718 2 0 450 0 450 -375 0 -375 0 0 -642 0 -643 375 3 375 2 0 -235 0 -235
685 0 685 0 2 -267 3 -268 363 -3 362 -2 0 -260 0 -260 -1440 0 -1440 0 0
-272 0 -273 343 -3 c188 -1 518 -7 732 -12 215 -6 537 -10 717 -10 l327 0 3
-137 3 -138 5234 -3 c4181 -2 5236 0 5243 10 4 7 8 56 8 109 0 53 3 109 6 125
l6 29 1088 0 c599 0 1090 2 1093 5 2 3 7 132 10 288 l5 282 -1479 0 -1479 0 2
263 3 262 365 2 365 2 3 276 2 275 725 0 725 0 0 225 0 225 378 2 377 3 3 643
2 642 -395 0 -395 0 0 340 0 340 -375 0 -375 0 0 -340z"/>
<path d="M3050 7735 l0 -285 370 0 370 0 0 285 0 285 -370 0 -370 0 0 -285z"/>
</g>
</svg>
